<?xml version="1.0" encoding="UTF-8"?>
<svg id="Layer_2" xmlns="http://www.w3.org/2000/svg" viewBox="0 0 183.87 166.91">
  <defs>
    <style>
      .cls-1 {
        fill: #fff;
      }

      .cls-2 {
        fill: #c68655;
      }

      .cls-3 {
        fill: #dca475;
      }

      .cls-4 {
        fill: #f1edec;
      }
    </style>
  </defs>
  <g id="Layer_1-2" data-name="Layer_1">
    <g id="OBJECTS">
      <g>
        <g>
          <path class="cls-3" d="M166.43,29.1c-10.35-16.8-68.8-18.94-74.39-19.11h0s-.08-.01-.22,0c-.14,0-.22,0-.22,0h0c-5.59.18-64.04,2.32-74.39,19.12-10.87,17.65,12.17,104.41,36.46,122.06,22.58,16.4,32.37,15.74,38.15,15.74,4.83,0,15.57.66,38.15-15.74,24.29-17.65,47.33-104.41,36.46-122.06Z"/>
          <path class="cls-1" d="M102.06,83.73c-8.28-15.8,16.44-71.56,16.44-71.56l-.27-.14c-12.93-1.57-23.92-1.96-26.18-2.03h0s-.08-.01-.22,0c-.14,0-.22,0-.22,0h0c-2.27.08-13.25.47-26.18,2.04l-.27.14s24.71,55.76,16.44,71.56c-7.02,13.39-32.41,34.9-42.73,48.47,4.68,8.51,9.72,15.26,14.82,18.97,22.58,16.4,32.37,15.74,38.15,15.74,4.83,0,15.57.66,38.15-15.74,5.1-3.7,10.14-10.46,14.82-18.97-10.32-13.57-35.72-35.07-42.73-48.46Z"/>
        </g>
        <g>
          <g>
            <path d="M70.37,71.69c0,5.69-4.61,10.29-10.29,10.29s-10.29-4.6-10.29-10.29,4.61-10.29,10.29-10.29,10.29,4.6,10.29,10.29Z"/>
            <path class="cls-4" d="M59.63,66.89c0,1.48-1.2,2.68-2.68,2.68s-2.68-1.2-2.68-2.68,1.2-2.68,2.68-2.68,2.68,1.2,2.68,2.68Z"/>
          </g>
          <g>
            <circle cx="123.58" cy="71.69" r="10.29"/>
            <path class="cls-4" d="M123.13,66.89c0,1.48-1.2,2.68-2.68,2.68s-2.68-1.2-2.68-2.68,1.2-2.68,2.68-2.68,2.68,1.2,2.68,2.68Z"/>
          </g>
        </g>
        <path class="cls-2" d="M118.5,12.16S121.78.59,133.87.02c12.09-.56,48.2,9.03,49.9,22.57,1.69,13.54-18.58,40.62-25.65,44.29-7.07,3.67-34.34-43.72-39.61-54.73Z"/>
        <path class="cls-2" d="M65.37,12.16S62.08.59,50,.02C37.91-.54,1.79,9.05.1,22.59c-1.69,13.54,18.58,40.62,25.65,44.29,7.07,3.67,34.34-43.72,39.61-54.73Z"/>
        <g>
          <path d="M91.83,113.16s-12.2-.34-14.57,6.44c0,0,.68,12.54,14.57,12.54s14.57-12.54,14.57-12.54c-2.37-6.78-14.57-6.44-14.57-6.44Z"/>
          <path d="M114.71,129.6c-.07.45-1.78,11.06-10.92,11.06-8.35,0-10.56-8.93-10.94-10.83,0-.01,0-.02,0-.03h-.01c-.03-.16-.05-.28-.05-.31l-.97.15-.97-.15s-.02.15-.05.31h-.01s0,.01,0,.03c-.38,1.89-2.59,10.83-10.94,10.83-9.14,0-10.85-10.6-10.92-11.06l-2.01.3c.02.13,2.03,12.78,12.92,12.78,7.13,0,10.49-5.47,11.97-9.28,1.47,3.81,4.83,9.28,11.97,9.28,10.9,0,12.91-12.65,12.93-12.78l-2.01-.3Z"/>
        </g>
      </g>
    </g>
  </g>
</svg>